HIERARCHY
ROOT Hips
{
	OFFSET 0.000000 121.760803 0.000000
	CHANNELS 6 Xposition Yposition Zposition Xrotation Yrotation Zrotation 
	JOINT Spine
	{
		OFFSET 0.072000 7.257294 -0.789700
		CHANNELS 3 Xrotation Yrotation Zrotation
		JOINT Spine1
		{
			OFFSET 0.000000 12.508769 -0.658067
			CHANNELS 3 Xrotation Yrotation Zrotation
			JOINT Spine1_split
			{
				OFFSET 0.000000 12.508769 -0.658067
				CHANNELS 3 Xrotation Yrotation Zrotation
				JOINT Spine2
				{
					OFFSET 0.000000 12.508769 -0.658067
					CHANNELS 3 Xrotation Yrotation Zrotation
					JOINT Neck
					{
						OFFSET 0.000000 14.033295 7.520400
						CHANNELS 3 Xrotation Yrotation Zrotation
						JOINT Head
						{
							OFFSET 0.000000 8.198502 5.703100
							CHANNELS 3 Xrotation Yrotation Zrotation
							JOINT HeadTop_End
							{
								OFFSET 0.000000 17.760803 13.332701
								CHANNELS 3 Xrotation Yrotation Zrotation
								End Site
								{
									OFFSET 0.000000 0.000000 0.000000
								}
							}
						}
					}
					JOINT LeftShoulder
					{
						OFFSET 6.292450 5.785301 -0.669000
						CHANNELS 3 Xrotation Yrotation Zrotation
						JOINT LeftShoulder_split
						{
							OFFSET 6.292450 5.785301 -0.669000
							CHANNELS 3 Xrotation Yrotation Zrotation
							JOINT LeftArm
							{
								OFFSET 13.907140 -6.093903 1.965100
								CHANNELS 3 Xrotation Yrotation Zrotation
								JOINT LeftForeArm
								{
									OFFSET 34.140198 0.000000 0.000000
									CHANNELS 3 Xrotation Yrotation Zrotation
									JOINT LeftHand
									{
										OFFSET 40.960209 0.000000 0.000000
										CHANNELS 3 Xrotation Yrotation Zrotation
										JOINT LeftHandThumb1
										{
											OFFSET 10.006996 -7.170425 9.573125
											CHANNELS 3 Xrotation Yrotation Zrotation
											JOINT LeftHandThumb2
											{
												OFFSET 1.835007 -1.059448 1.059443
												CHANNELS 3 Xrotation Yrotation Zrotation
												JOINT LeftHandThumb3
												{
													OFFSET 2.112267 -1.219513 1.219518
													CHANNELS 3 Xrotation Yrotation Zrotation
													JOINT LeftHandThumb4
													{
														OFFSET 4.843811 -2.796570 2.796576
														CHANNELS 3 Xrotation Yrotation Zrotation
														End Site
														{
															OFFSET 0.000000 0.000000 0.000000
														}
													}
												}
											}
										}
										JOINT LeftHandIndex1
										{
											OFFSET 18.389847 -0.922348 4.596882
											CHANNELS 3 Xrotation Yrotation Zrotation
											JOINT LeftHandIndex2
											{
												OFFSET 4.711273 0.000000 0.000000
												CHANNELS 3 Xrotation Yrotation Zrotation
												JOINT LeftHandIndex3
												{
													OFFSET 2.886131 0.000000 0.000000
													CHANNELS 3 Xrotation Yrotation Zrotation
													JOINT LeftHandIndex4
													{
														OFFSET 6.145912 0.000000 0.000000
														CHANNELS 3 Xrotation Yrotation Zrotation
														End Site
														{
															OFFSET 0.000000 0.000000 0.000000
														}
													}
												}
											}
										}
										JOINT LeftHandMiddle1
										{
											OFFSET 18.013008 0.000000 0.000000
											CHANNELS 3 Xrotation Yrotation Zrotation
											JOINT LeftHandMiddle2
											{
												OFFSET 4.946693 0.000000 0.000000
												CHANNELS 3 Xrotation Yrotation Zrotation
												JOINT LeftHandMiddle3
												{
													OFFSET 3.342232 0.000000 0.000000
													CHANNELS 3 Xrotation Yrotation Zrotation
													JOINT LeftHandMiddle4
													{
														OFFSET 4.461754 0.000000 0.000000
														CHANNELS 3 Xrotation Yrotation Zrotation
														End Site
														{
															OFFSET 0.000000 0.000000 0.000000
														}
													}
												}
											}
										}
										JOINT LeftHandRing1
										{
											OFFSET 15.849892 -0.102921 -4.126150
											CHANNELS 3 Xrotation Yrotation Zrotation
											JOINT LeftHandRing2
											{
												OFFSET 3.527054 0.000000 0.000000
												CHANNELS 3 Xrotation Yrotation Zrotation
												JOINT LeftHandRing3
												{
													OFFSET 2.961098 0.000000 0.000000
													CHANNELS 3 Xrotation Yrotation Zrotation
													JOINT LeftHandRing4
													{
														OFFSET 4.927200 0.000000 0.000000
														CHANNELS 3 Xrotation Yrotation Zrotation
														End Site
														{
															OFFSET 0.000000 0.000000 0.000000
														}
													}
												}
											}
										}
										JOINT LeftHandPinky1
										{
											OFFSET 12.791824 -0.832031 -6.799156
											CHANNELS 3 Xrotation Yrotation Zrotation
											JOINT LeftHandPinky2
											{
												OFFSET 3.327133 0.000000 0.000000
												CHANNELS 3 Xrotation Yrotation Zrotation
												JOINT LeftHandPinky3
												{
													OFFSET 3.014900 0.000000 0.000000
													CHANNELS 3 Xrotation Yrotation Zrotation
													JOINT LeftHandPinky4
													{
														OFFSET 5.847786 0.000000 0.000000
														CHANNELS 3 Xrotation Yrotation Zrotation
														End Site
														{
															OFFSET 0.000000 0.000000 0.000000
														}
													}
												}
											}
										}
									}
								}
							}
						}
					}
					JOINT RightShoulder
					{
						OFFSET -6.292450 5.785301 -0.669000
						CHANNELS 3 Xrotation Yrotation Zrotation
						JOINT RightShoulder_split
						{
							OFFSET -6.292450 5.785301 -0.669000
							CHANNELS 3 Xrotation Yrotation Zrotation
							JOINT RightArm
							{
								OFFSET -13.907140 -6.093903 1.965100
								CHANNELS 3 Xrotation Yrotation Zrotation
								JOINT RightForeArm
								{
									OFFSET -34.140198 0.000000 0.000000
									CHANNELS 3 Xrotation Yrotation Zrotation
									JOINT RightHand
									{
										OFFSET -40.960209 0.000000 0.000000
										CHANNELS 3 Xrotation Yrotation Zrotation
										JOINT RightHandThumb1
										{
											OFFSET -10.007050 -7.170456 9.573117
											CHANNELS 3 Xrotation Yrotation Zrotation
											JOINT RightHandThumb2
											{
												OFFSET -1.835007 -1.059448 1.059443
												CHANNELS 3 Xrotation Yrotation Zrotation
												JOINT RightHandThumb3
												{
													OFFSET -2.112267 -1.219513 1.219518
													CHANNELS 3 Xrotation Yrotation Zrotation
													JOINT RightHandThumb4
													{
														OFFSET -4.843834 -2.796585 2.796590
														CHANNELS 3 Xrotation Yrotation Zrotation
														End Site
														{
															OFFSET 0.000000 0.000000 0.000000
														}
													}
												}
											}
										}
										JOINT RightHandIndex1
										{
											OFFSET -18.389870 -0.922424 4.596786
											CHANNELS 3 Xrotation Yrotation Zrotation
											JOINT RightHandIndex2
											{
												OFFSET -4.711273 0.000000 0.000000
												CHANNELS 3 Xrotation Yrotation Zrotation
												JOINT RightHandIndex3
												{
													OFFSET -2.886131 0.000000 0.000000
													CHANNELS 3 Xrotation Yrotation Zrotation
													JOINT RightHandIndex4
													{
														OFFSET -6.145920 0.000000 0.000000
														CHANNELS 3 Xrotation Yrotation Zrotation
														End Site
														{
															OFFSET 0.000000 0.000000 0.000000
														}
													}
												}
											}
										}
										JOINT RightHandMiddle1
										{
											OFFSET -18.013008 0.000000 0.000000
											CHANNELS 3 Xrotation Yrotation Zrotation
											JOINT RightHandMiddle2
											{
												OFFSET -4.946693 0.000000 0.000000
												CHANNELS 3 Xrotation Yrotation Zrotation
												JOINT RightHandMiddle3
												{
													OFFSET -3.342232 0.000000 0.000000
													CHANNELS 3 Xrotation Yrotation Zrotation
													JOINT RightHandMiddle4
													{
														OFFSET -4.461754 0.000000 0.000000
														CHANNELS 3 Xrotation Yrotation Zrotation
														End Site
														{
															OFFSET 0.000000 0.000000 0.000000
														}
													}
												}
											}
										}
										JOINT RightHandRing1
										{
											OFFSET -15.849876 -0.102936 -4.126237
											CHANNELS 3 Xrotation Yrotation Zrotation
											JOINT RightHandRing2
											{
												OFFSET -3.527054 0.000000 0.000000
												CHANNELS 3 Xrotation Yrotation Zrotation
												JOINT RightHandRing3
												{
													OFFSET -2.961098 0.000000 0.000000
													CHANNELS 3 Xrotation Yrotation Zrotation
													JOINT RightHandRing4
													{
														OFFSET -4.927200 0.000000 0.000000
														CHANNELS 3 Xrotation Yrotation Zrotation
														End Site
														{
															OFFSET 0.000000 0.000000 0.000000
														}
													}
												}
											}
										}
										JOINT RightHandPinky1
										{
											OFFSET -12.791786 -0.832077 -6.799222
											CHANNELS 3 Xrotation Yrotation Zrotation
											JOINT RightHandPinky2
											{
												OFFSET -3.327133 0.000000 0.000000
												CHANNELS 3 Xrotation Yrotation Zrotation
												JOINT RightHandPinky3
												{
													OFFSET -3.014900 0.000000 0.000000
													CHANNELS 3 Xrotation Yrotation Zrotation
													JOINT RightHandPinky4
													{
														OFFSET -5.847786 0.000000 0.000000
														CHANNELS 3 Xrotation Yrotation Zrotation
														End Site
														{
															OFFSET 0.000000 0.000000 0.000000
														}
													}
												}
											}
										}
									}
								}
							}
						}
					}
				}
			}
		}
	}
	JOINT LeftUpLeg
	{
		OFFSET 13.026900 -6.336304 -1.092800
		CHANNELS 3 Xrotation Yrotation Zrotation
		JOINT LeftLeg
		{
			OFFSET 0.524474 -46.096886 9.782700
			CHANNELS 3 Xrotation Yrotation Zrotation
			JOINT LeftFoot
			{
				OFFSET -0.524474 -53.427422 -12.948200
				CHANNELS 3 Xrotation Yrotation Zrotation
				JOINT LeftToeBase
				{
					OFFSET 0.192200 -14.009700 16.364100
					CHANNELS 3 Xrotation Yrotation Zrotation
					JOINT LeftToe_End
					{
						OFFSET -1.784700 -0.561700 9.474800
						CHANNELS 3 Xrotation Yrotation Zrotation
						End Site
						{
							OFFSET 0.000000 0.000000 0.000000
						}
					}
				}
			}
		}
	}
	JOINT RightUpLeg
	{
		OFFSET -12.883000 -6.336304 -1.092800
		CHANNELS 3 Xrotation Yrotation Zrotation
		JOINT RightLeg
		{
			OFFSET -0.524587 -46.096825 9.782800
			CHANNELS 3 Xrotation Yrotation Zrotation
			JOINT RightFoot
			{
				OFFSET 0.524587 -53.427383 -12.948300
				CHANNELS 3 Xrotation Yrotation Zrotation
				JOINT RightToeBase
				{
					OFFSET -0.192200 -14.009700 16.364100
					CHANNELS 3 Xrotation Yrotation Zrotation
					JOINT RightToe_End
					{
						OFFSET 1.784700 -0.561700 9.474800
						CHANNELS 3 Xrotation Yrotation Zrotation
						End Site
						{
							OFFSET 0.000000 0.000000 0.000000
						}
					}
				}
			}
		}
	}
}
MOTION
Frames: 4
Frame Time: 0.016667
-0.538393 107.944237 0.581028 -6.104425 -43.212729 -4.140793 5.826031 4.833891 -1.150307 11.836539 9.037612 -3.083970 0.000000 0.000000 0.000000 11.836542 9.037614 -3.083969 -4.303055 -1.272946 0.206309 -6.271933 20.437796 -0.377164 -0.000001 0.000000 0.000000 1.392465 -0.696062 -7.877845 0.000000 0.000000 0.000000 -14.260089 2.394344 -63.277092 9.865064 -47.524931 5.927926 16.172828 0.915187 18.795412 9.163605 4.814101 -5.499024 -0.335353 0.032536 0.783669 -0.000002 0.000013 0.000000 -0.000001 -0.000003 0.000005 -0.902008 -6.980971 -3.808414 0.033406 0.804253 -16.418986 0.000005 -0.000006 -0.000003 0.000000 0.000001 -0.000001 1.947854 9.683076 -14.539801 -0.456428 -1.565429 -21.881023 -0.000006 -0.000003 -0.000002 -0.000007 -0.000001 0.000001 2.605862 14.896813 -31.345254 -0.576865 -2.712397 -32.011550 -0.000004 0.000008 0.000001 -0.000003 0.000000 0.000001 4.170569 18.495025 -34.987316 -0.706801 -5.788614 -39.372933 0.000000 0.000001 0.000002 -0.000000 0.000001 0.000001 1.410924 9.461496 9.792747 0.000000 0.000000 0.000000 1.220044 -24.270686 60.532914 -6.660705 41.858408 8.043855 6.225261 12.322339 11.673315 -8.895856 -4.903137 -0.383713 7.904820 -19.192478 -2.856861 0.000003 -0.000008 0.000018 -0.000000 -0.000000 0.000000 -1.085502 -1.215492 4.525243 0.142132 -1.115547 16.942619 0.000001 -0.000003 -0.000007 0.000001 -0.000003 -0.000000 -0.663642 -2.903896 12.731588 -0.660567 1.813465 30.578999 0.000001 0.000002 -0.000004 0.000002 -0.000000 -0.000003 2.423618 -7.404564 21.763273 -0.989708 3.764320 37.431137 0.000000 -0.000000 0.000002 -0.000001 -0.000001 0.000002 3.481024 -10.055076 24.322744 -1.458322 7.872019 41.091962 -0.000001 0.000000 0.000004 -0.000002 -0.000002 -0.000004 -28.118789 5.790312 13.206259 32.819233 -13.430437 -0.044013 -2.035663 0.430057 -7.881433 -2.319091 -3.216993 0.802958 -0.000000 0.000002 0.000000 -3.988373 -13.274017 -16.987114 31.800138 -8.638546 -0.389792 -19.543475 -4.347196 18.458554 -1.784986 -0.356721 0.333189 -0.000000 0.000000 0.000000 
-0.555075 107.886452 0.579249 -5.921258 -43.198440 -3.968528 5.777882 4.751151 -1.184719 11.734904 8.869611 -3.113898 0.000000 0.000000 0.000000 11.734908 8.869609 -3.113898 -4.165994 -0.932300 0.146253 -6.156640 20.430134 -0.327628 -0.000001 0.000000 -0.000000 1.386619 -0.844137 -7.964507 0.000000 0.000000 0.000000 -14.201895 2.560086 -62.985361 9.704274 -47.394454 5.847740 16.129186 0.756299 18.624095 8.640758 4.433221 -5.561616 -0.408215 0.793610 0.350501 -0.000009 0.000011 0.000006 -0.000002 -0.000003 0.000006 -1.041371 -6.906978 -4.872310 0.025668 0.590439 -17.734653 -0.000003 -0.000003 -0.000005 -0.000004 0.000000 0.000001 2.035072 9.279548 -16.022049 -0.473436 -1.804216 -24.052856 -0.000007 -0.000004 -0.000000 -0.000001 -0.000000 0.000001 2.690491 14.538194 -32.911912 -0.496766 -2.772644 -33.741271 -0.000003 0.000006 0.000003 -0.000002 0.000001 -0.000000 4.266849 18.108551 -37.030284 -0.686423 -5.727433 -41.165577 0.000006 0.000000 0.000003 -0.000001 0.000001 -0.000001 1.382080 9.291157 9.911533 0.000000 0.000000 0.000000 1.351736 -24.130085 60.409813 -6.095246 41.947194 7.777825 6.458490 12.305879 11.387779 -8.420293 -4.538852 0.140669 7.828455 -18.508800 -2.441035 0.000005 -0.000008 0.000017 -0.000001 -0.000001 -0.000001 -1.150895 -0.748957 3.855739 0.139050 -1.114655 16.972375 0.000002 -0.000004 -0.000007 -0.000001 0.000002 0.000002 -0.656024 -2.941667 12.234581 -0.660076 1.806542 30.514000 -0.000001 0.000004 -0.000004 -0.000000 0.000001 0.000001 2.492887 -7.589662 21.296026 -0.992148 3.759896 37.371165 0.000002 0.000002 -0.000001 -0.000000 -0.000000 0.000001 3.629653 -10.398265 23.891199 -1.459803 7.869075 41.061864 0.000000 0.000001 -0.000001 -0.000000 0.000002 0.000004 -28.296473 5.725220 13.149853 32.912899 -13.364425 -0.030873 -2.067455 0.436218 -7.937688 -2.316065 -3.236182 0.830649 0.000000 -0.000000 -0.000000 -4.246984 -13.188528 -17.023543 32.054016 -8.994096 -0.436331 -19.560197 -4.365995 18.484462 -1.823585 -0.092458 0.544201 -0.000000 0.000001 0.000000 
-0.563470 107.835930 0.580123 -5.682903 -43.128096 -3.749721 5.728048 4.666275 -1.222475 11.629820 8.696611 -3.147945 0.000000 0.000000 0.000000 11.629813 8.696626 -3.147947 -4.189975 -0.576357 0.043483 -6.017090 20.421164 -0.295644 0.000001 0.000000 -0.000000 1.380127 -0.996767 -8.053124 0.000000 0.000000 0.000000 -14.173307 2.709391 -62.680919 9.587350 -47.246679 5.801175 16.163760 0.571960 18.440114 8.124635 4.043977 -5.653115 -0.446821 1.595468 -0.110216 -0.000005 0.000014 0.000008 -0.000001 0.000001 -0.000001 -1.182645 -6.814249 -6.019478 0.012802 0.363565 -19.154354 -0.000002 -0.000006 -0.000009 -0.000002 -0.000003 0.000004 2.116439 8.859749 -17.622226 -0.502084 -2.058233 -26.396209 -0.000003 -0.000004 -0.000002 0.000001 -0.000001 0.000001 2.764102 14.158161 -34.618254 -0.416506 -2.836969 -35.640047 0.000002 0.000004 -0.000001 0.000001 0.000001 0.000002 4.332958 17.683406 -39.232538 -0.662770 -5.659994 -43.158743 0.000004 0.000004 -0.000001 0.000005 0.000003 -0.000002 1.353097 9.120818 10.030866 0.000000 0.000000 0.000000 1.496266 -24.000617 60.284930 -5.499489 42.033131 7.478120 6.779208 12.246907 11.024415 -7.858787 -4.169038 0.765188 7.781533 -17.752252 -1.975164 0.000002 -0.000008 0.000018 -0.000002 -0.000000 -0.000001 -1.206878 -0.257593 3.105320 0.136255 -1.127645 16.886266 0.000003 -0.000000 -0.000008 0.000000 0.000000 -0.000001 -0.647823 -2.986980 11.671391 -0.658988 1.789976 30.358015 0.000000 0.000004 -0.000001 -0.000000 0.000001 0.000001 2.561814 -7.792039 20.773004 -0.998017 3.749313 37.227154 0.000003 0.000004 -0.000005 -0.000000 0.000000 -0.000000 3.778055 -10.770709 23.398823 -1.463332 7.861987 40.989652 0.000000 0.000003 -0.000001 -0.000000 0.000001 0.000000 -28.514402 5.650021 13.058620 32.983919 -13.310650 -0.016304 -2.076837 0.440314 -7.996277 -2.306640 -3.273439 0.881119 -0.000000 0.000004 0.000000 -4.518268 -13.092793 -17.048390 32.299316 -9.436399 -0.493750 -19.564573 -4.390006 18.523879 -1.879032 0.180778 0.762059 -0.000000 -0.000001 0.000000 
-0.563960 107.791191 0.585418 -5.392946 -43.004240 -3.498876 5.677305 4.580077 -1.257503 11.522932 8.520897 -3.178271 0.000000 0.000000 0.000000 11.522932 8.520894 -3.178269 -4.372949 -0.187670 -0.099258 -5.842713 20.412138 -0.274203 -0.000001 -0.000000 0.000000 1.373126 -1.153248 -8.144312 0.000000 0.000000 0.000000 -14.167243 2.845054 -62.375801 9.516539 -47.090367 5.789341 16.272644 0.371200 18.260290 7.615068 3.647147 -5.772860 -0.452403 2.437064 -0.597088 -0.000010 0.000013 0.000007 0.000001 0.000004 0.000000 -1.323884 -6.703290 -7.245798 -0.006518 0.124174 -20.673152 0.000002 -0.000005 -0.000004 -0.000004 -0.000001 0.000003 2.188762 8.425095 -19.334483 -0.544332 -2.326898 -28.903103 -0.000004 -0.000002 -0.000002 0.000000 0.000001 -0.000000 2.823272 13.758666 -36.457091 -0.336102 -2.906759 -37.699912 0.000007 0.000010 0.000001 0.000001 0.000000 0.000001 4.364295 17.223787 -41.585340 -0.634330 -5.587165 -45.342836 0.000001 0.000002 -0.000002 -0.000000 0.000001 0.000003 1.325407 8.962438 10.136578 0.000000 0.000000 0.000000 1.656977 -23.878777 60.164999 -4.869281 42.117706 7.144445 7.188157 12.148863 10.581810 -7.214457 -3.789422 1.485781 7.762078 -16.923532 -1.462389 0.000004 -0.000007 0.000017 -0.000002 0.000000 -0.000001 -1.250352 0.258060 2.275959 0.133632 -1.154115 16.687216 0.000003 -0.000003 -0.000007 0.000001 -0.000001 -0.000000 -0.639259 -3.039713 11.043615 -0.657391 1.764007 30.113392 -0.000000 0.000003 -0.000005 0.000000 0.000000 -0.000001 2.629483 -8.011484 20.195442 -1.007282 3.732825 37.001225 0.000000 0.000001 -0.000000 -0.000001 -0.000001 0.000002 3.924444 -11.172135 22.846790 -1.468907 7.850894 40.876370 0.000001 0.000001 -0.000000 0.000001 0.000001 0.000003 -28.780443 5.555055 12.941735 33.051227 -13.301682 -0.000064 -2.069367 0.439045 -8.024767 -2.300330 -3.297117 0.942822 0.000000 -0.000001 -0.000000 -4.796762 -12.988725 -17.051340 32.531665 -9.961529 -0.560691 -19.552759 -4.418850 18.579588 -1.947728 0.463315 0.991964 0.000000 0.000001 0.000000 
